<svg width="48" height="48" viewBox="0 0 48 48" xmlns="http://www.w3.org/2000/svg" fill="currentColor">
  <rect x="7" y="7" width="7" height="7" rx="1.5" opacity="0.26"/>
  <rect x="16" y="7" width="7" height="7" rx="1.5" opacity="0.5"/>
  <rect x="25" y="7" width="7" height="7" rx="1.5" opacity="0.82"/>
  <rect x="34" y="7" width="7" height="7" rx="1.5" opacity="1"/>
  <rect x="7" y="16" width="7" height="7" rx="1.5" opacity="0.18"/>
  <rect x="16" y="16" width="7" height="7" rx="1.5" opacity="0.34"/>
  <rect x="25" y="16" width="7" height="7" rx="1.5" opacity="0.66"/>
  <rect x="34" y="16" width="7" height="7" rx="1.5" opacity="0.9"/>
  <rect x="7" y="25" width="7" height="7" rx="1.5" opacity="0.14"/>
  <rect x="16" y="25" width="7" height="7" rx="1.5" opacity="0.22"/>
  <rect x="25" y="25" width="7" height="7" rx="1.5" opacity="0.42"/>
  <rect x="34" y="25" width="7" height="7" rx="1.5" opacity="0.58"/>
  <rect x="7" y="34" width="7" height="7" rx="1.5" opacity="0.12"/>
  <rect x="16" y="34" width="7" height="7" rx="1.5" opacity="0.15"/>
  <rect x="25" y="34" width="7" height="7" rx="1.5" opacity="0.22"/>
  <rect x="34" y="34" width="7" height="7" rx="1.5" opacity="0.3"/>
</svg>
